<?xml version="1.0" standalone="no"?>
<!DOCTYPE svg PUBLIC "-//W3C//DTD SVG 20010904//EN"
 "http://www.w3.org/TR/2001/REC-SVG-20010904/DTD/svg10.dtd">
<svg version="1.0" xmlns="http://www.w3.org/2000/svg"
 width="700.000000pt" height="700.000000pt" viewBox="0 0 700.000000 700.000000"
 preserveAspectRatio="xMidYMid meet">
<metadata>
Created by potrace 1.14, written by Peter Selinger 2001-2017
</metadata>
<g transform="translate(0.000000,700.000000) scale(0.100000,-0.100000)"
fill="#000000" stroke="none">
<path d="M3367 6985 c-205 -51 -366 -200 -430 -400 -23 -70 -26 -95 -28 -206
l-1 -97 -72 38 c-89 48 -173 70 -269 70 -101 0 -166 -15 -262 -59 -174 -81
-308 -261 -331 -446 -4 -33 -7 -410 -7 -837 0 -428 -3 -778 -6 -778 -4 0 -11
4 -16 9 -14 13 -180 68 -257 86 -201 46 -471 37 -650 -21 -57 -19 -92 -61 -92
-113 0 -25 18 -72 56 -146 86 -169 153 -333 233 -570 32 -95 100 -345 110
-405 3 -19 10 -51 15 -70 16 -63 54 -297 65 -405 3 -33 8 -73 10 -90 9 -67 16
-222 20 -430 3 -202 9 -300 21 -365 2 -14 7 -43 10 -65 3 -22 19 -92 35 -155
143 -558 539 -1049 1057 -1309 210 -106 423 -171 672 -206 94 -13 426 -13 500
-1 19 4 64 11 100 17 402 67 789 267 1080 558 136 135 174 181 265 316 87 129
158 266 214 410 42 105 94 293 105 375 3 25 8 56 10 70 15 83 17 127 21 330 5
269 13 406 31 555 3 22 7 60 10 85 3 25 14 95 24 155 26 144 30 167 36 187 3
9 7 25 9 35 41 195 125 472 206 676 46 115 138 315 154 337 20 25 42 93 40
122 -2 36 -29 74 -64 92 -50 26 -233 57 -357 60 -104 2 -237 -9 -328 -29 -40
-8 -193 -59 -237 -78 l-36 -16 0 777 c0 427 -3 804 -7 837 -30 236 -226 444
-464 494 -129 27 -260 9 -387 -53 l-85 -42 0 97 c0 184 -55 324 -176 445 -140
141 -359 205 -547 159z m279 -264 c93 -43 154 -113 185 -211 18 -59 19 -118
19 -1542 0 -1160 3 -1486 13 -1506 20 -43 76 -74 117 -67 44 8 81 34 98 68 11
22 13 255 13 1203 1 1287 -2 1227 59 1324 67 105 188 164 318 155 123 -8 236
-87 291 -204 l26 -56 5 -1185 c5 -1127 6 -1187 23 -1214 35 -53 114 -67 167
-28 49 36 52 58 54 306 l1 231 60 32 c88 47 214 91 313 108 101 18 321 21 336
4 2 -2 -18 -51 -44 -109 -101 -222 -230 -609 -275 -820 -30 -139 -54 -267 -60
-314 -3 -15 -6 -35 -9 -45 -3 -9 -8 -45 -11 -81 -4 -36 -8 -67 -10 -70 -2 -3
-6 -45 -10 -95 -4 -49 -8 -106 -11 -125 -2 -19 -6 -138 -8 -265 -3 -126 -8
-268 -11 -315 -39 -540 -340 -1049 -802 -1356 -395 -263 -870 -356 -1343 -265
-96 19 -236 59 -285 81 -11 5 -49 21 -85 36 -289 118 -583 362 -769 638 -141
209 -231 424 -280 671 -25 126 -30 202 -36 495 -3 129 -7 258 -10 285 -2 28
-7 79 -10 115 -34 420 -170 949 -355 1385 -35 83 -63 152 -62 154 5 13 207 17
287 6 121 -17 283 -71 375 -125 l45 -26 1 -231 c2 -247 5 -269 55 -305 49 -37
121 -27 164 22 20 22 20 40 25 1214 l5 1191 27 57 c34 73 104 142 176 176 48
22 71 26 143 26 73 0 94 -4 140 -27 97 -48 159 -119 189 -216 18 -56 19 -120
18 -1240 0 -1309 -5 -1209 65 -1251 55 -34 135 -8 164 52 10 19 13 365 15
1529 l3 1504 28 57 c47 97 143 174 244 197 63 14 152 3 219 -28z"/>
<path d="M3329 2755 c-3 -2 -30 -6 -62 -9 -339 -34 -764 -240 -1006 -489 -37
-39 -45 -53 -49 -97 l-5 -51 85 -82 c248 -242 609 -413 978 -464 72 -10 388
-10 465 0 358 48 725 222 972 463 76 74 83 84 83 120 0 52 -16 81 -78 138
-163 152 -399 298 -599 369 -83 30 -237 72 -303 82 -25 4 -54 10 -65 12 -25 6
-411 14 -416 8z m376 -250 c28 -3 79 -13 115 -21 36 -9 76 -18 89 -20 85 -17
400 -159 409 -185 2 -5 8 -9 13 -9 10 0 109 -71 142 -101 17 -16 15 -19 -60
-74 -92 -67 -193 -127 -271 -162 -32 -13 -66 -29 -77 -34 -58 -25 -218 -71
-295 -83 -133 -22 -333 -27 -460 -12 -151 17 -364 83 -506 154 -61 31 -214
131 -267 174 l-29 23 59 46 c135 104 344 214 463 244 8 2 40 11 70 20 30 8 66
17 80 20 14 3 36 7 50 10 14 3 54 8 90 11 36 4 66 8 68 9 5 5 268 -3 317 -10z"/>
<path d="M3437 2449 c-89 -20 -168 -83 -209 -167 -33 -67 -33 -187 1 -255 111
-227 431 -226 543 1 32 66 33 187 0 253 -61 124 -206 197 -335 168z m122 -233
c35 -37 37 -77 6 -114 -21 -26 -34 -32 -65 -32 -51 0 -95 48 -86 94 16 77 95
105 145 52z"/>
</g>
</svg>
