<svg xmlns="http://www.w3.org/2000/svg" xml:space="preserve" viewBox="0 0 1160 1160">
  <path fill="#FFF" d="M0 0h1160v1160H0z"/>
  <path d="M400 80h40v40h-40zM440 80h40v40h-40zM480 80h40v40h-40zM560 80h40v40h-40zM640 80h40v40h-40zM400 120h40v40h-40zM440 120h40v40h-40zM480 120h40v40h-40zM520 120h40v40h-40zM560 120h40v40h-40zM720 120h40v40h-40zM400 160h40v40h-40zM480 160h40v40h-40zM520 160h40v40h-40zM600 160h40v40h-40zM520 200h40v40h-40zM560 200h40v40h-40zM600 200h40v40h-40zM680 200h40v40h-40zM720 200h40v40h-40zM400 240h40v40h-40zM560 240h40v40h-40zM720 240h40v40h-40zM520 280h40v40h-40zM560 280h40v40h-40zM600 280h40v40h-40zM400 320h40v40h-40zM480 320h40v40h-40zM560 320h40v40h-40zM640 320h40v40h-40zM720 320h40v40h-40zM440 360h40v40h-40zM480 360h40v40h-40zM520 360h40v40h-40zM600 360h40v40h-40zM720 360h40v40h-40zM80 400h40v40H80zM200 400h40v40h-40zM240 400h40v40h-40zM280 400h40v40h-40zM320 400h40v40h-40zM360 400h40v40h-40zM400 400h40v40h-40zM440 400h40v40h-40zM480 400h40v40h-40zM560 400h40v40h-40zM640 400h40v40h-40zM720 400h40v40h-40zM760 400h40v40h-40zM880 400h40v40h-40zM960 400h40v40h-40zM1000 400h40v40h-40zM1040 400h40v40h-40zM160 440h40v40h-40zM200 440h40v40h-40zM400 440h40v40h-40zM480 440h40v40h-40zM520 440h40v40h-40zM680 440h40v40h-40zM840 440h40v40h-40zM880 440h40v40h-40zM920 440h40v40h-40zM960 440h40v40h-40zM1000 440h40v40h-40zM200 480h40v40h-40zM240 480h40v40h-40zM320 480h40v40h-40zM400 480h40v40h-40zM440 480h40v40h-40zM520 480h40v40h-40zM560 480h40v40h-40zM680 480h40v40h-40zM760 480h40v40h-40zM840 480h40v40h-40zM920 480h40v40h-40zM1040 480h40v40h-40zM80 520h40v40H80zM440 520h40v40h-40zM520 520h40v40h-40zM680 520h40v40h-40zM760 520h40v40h-40zM800 520h40v40h-40zM920 520h40v40h-40zM960 520h40v40h-40zM1000 520h40v40h-40zM1040 520h40v40h-40zM80 560h40v40H80zM120 560h40v40h-40zM160 560h40v40h-40zM240 560h40v40h-40zM280 560h40v40h-40zM320 560h40v40h-40zM480 560h40v40h-40zM720 560h40v40h-40zM800 560h40v40h-40zM1040 560h40v40h-40zM80 600h40v40H80zM240 600h40v40h-40zM280 600h40v40h-40zM360 600h40v40h-40zM440 600h40v40h-40zM560 600h40v40h-40zM600 600h40v40h-40zM640 600h40v40h-40zM680 600h40v40h-40zM880 600h40v40h-40zM1000 600h40v40h-40zM80 640h40v40H80zM120 640h40v40h-40zM200 640h40v40h-40zM240 640h40v40h-40zM280 640h40v40h-40zM320 640h40v40h-40zM400 640h40v40h-40zM440 640h40v40h-40zM480 640h40v40h-40zM600 640h40v40h-40zM640 640h40v40h-40zM680 640h40v40h-40zM720 640h40v40h-40zM800 640h40v40h-40zM880 640h40v40h-40zM920 640h40v40h-40zM960 640h40v40h-40zM1000 640h40v40h-40zM1040 640h40v40h-40zM80 680h40v40H80zM200 680h40v40h-40zM240 680h40v40h-40zM280 680h40v40h-40zM360 680h40v40h-40zM400 680h40v40h-40zM440 680h40v40h-40zM480 680h40v40h-40zM560 680h40v40h-40zM680 680h40v40h-40zM760 680h40v40h-40zM800 680h40v40h-40zM840 680h40v40h-40zM920 680h40v40h-40zM960 680h40v40h-40zM1040 680h40v40h-40zM80 720h40v40H80zM160 720h40v40h-40zM240 720h40v40h-40zM320 720h40v40h-40zM480 720h40v40h-40zM520 720h40v40h-40zM560 720h40v40h-40zM600 720h40v40h-40zM720 720h40v40h-40zM760 720h40v40h-40zM800 720h40v40h-40zM840 720h40v40h-40zM880 720h40v40h-40zM960 720h40v40h-40zM1000 720h40v40h-40zM400 760h40v40h-40zM480 760h40v40h-40zM520 760h40v40h-40zM640 760h40v40h-40zM720 760h40v40h-40zM880 760h40v40h-40zM960 760h40v40h-40zM1000 760h40v40h-40zM400 800h40v40h-40zM440 800h40v40h-40zM560 800h40v40h-40zM640 800h40v40h-40zM720 800h40v40h-40zM800 800h40v40h-40zM880 800h40v40h-40zM1040 800h40v40h-40zM400 840h40v40h-40zM440 840h40v40h-40zM480 840h40v40h-40zM520 840h40v40h-40zM600 840h40v40h-40zM640 840h40v40h-40zM680 840h40v40h-40zM720 840h40v40h-40zM880 840h40v40h-40zM400 880h40v40h-40zM440 880h40v40h-40zM520 880h40v40h-40zM600 880h40v40h-40zM680 880h40v40h-40zM720 880h40v40h-40zM760 880h40v40h-40zM800 880h40v40h-40zM840 880h40v40h-40zM880 880h40v40h-40zM1000 880h40v40h-40zM1040 880h40v40h-40zM400 920h40v40h-40zM440 920h40v40h-40zM480 920h40v40h-40zM560 920h40v40h-40zM600 920h40v40h-40zM640 920h40v40h-40zM680 920h40v40h-40zM720 920h40v40h-40zM760 920h40v40h-40zM800 920h40v40h-40zM1000 920h40v40h-40zM1040 920h40v40h-40zM480 960h40v40h-40zM520 960h40v40h-40zM600 960h40v40h-40zM680 960h40v40h-40zM760 960h40v40h-40zM880 960h40v40h-40zM920 960h40v40h-40zM960 960h40v40h-40zM1000 960h40v40h-40zM1040 960h40v40h-40zM440 1000h40v40h-40zM520 1000h40v40h-40zM560 1000h40v40h-40zM600 1000h40v40h-40zM840 1000h40v40h-40zM880 1000h40v40h-40zM960 1000h40v40h-40zM1000 1000h40v40h-40zM1040 1000h40v40h-40zM400 1040h40v40h-40zM520 1040h40v40h-40zM560 1040h40v40h-40zM600 1040h40v40h-40zM720 1040h40v40h-40zM800 1040h40v40h-40zM920 1040h40v40h-40zM1040 1040h40v40h-40z"/>
  <path fill="none" d="M122 122h196v196H122z"/>
  <path d="M318 80H80v280h280V80h-42zm0 238H122V122h196v196z"/>
  <path fill="none" d="M842 122h196v196H842z"/>
  <path d="M1038 80H800v280h280V80h-42zm0 238H842V122h196v196z"/>
  <path fill="none" d="M122 842h196v196H122z"/>
  <path d="M318 800H80v280h280V800h-42zm0 238H122V842h196v196zM160 160h120v120H160zM880 160h120v120H880z"/>
  <path d="M160 880h120v120H160z"/>
</svg>